<svg id="visual" viewBox="0 0 900 600" width="900" height="600" xmlns="http://www.w3.org/2000/svg" xmlns:xlink="http://www.w3.org/1999/xlink" version="1.1"><g stroke-width="1" stroke-linejoin="bevel"><path d="M517.3 247L504.3 374L643.9 349Z" fill="#6c9fb7" stroke="#6c9fb7"></path><path d="M643.9 349L653.9 227L517.3 247Z" fill="#669bb3" stroke="#669bb3"></path><path d="M504.3 374L643.9 481L643.9 349Z" fill="#71a3ba" stroke="#71a3ba"></path><path d="M643.9 349L771.4 234L653.9 227Z" fill="#77a7bd" stroke="#77a7bd"></path><path d="M504.3 374L517.3 493L643.9 481Z" fill="#71a3ba" stroke="#71a3ba"></path><path d="M517.3 247L386.7 368L504.3 374Z" fill="#6097b0" stroke="#6097b0"></path><path d="M504.3 374L377.7 485L517.3 493Z" fill="#5a93ad" stroke="#5a93ad"></path><path d="M653.9 227L499.3 120L517.3 247Z" fill="#6c9fb7" stroke="#6c9fb7"></path><path d="M517.3 247L372.7 223L386.7 368Z" fill="#6097b0" stroke="#6097b0"></path><path d="M397.7 135L372.7 223L517.3 247Z" fill="#8db8ca" stroke="#8db8ca"></path><path d="M653.9 227L650.9 116L499.3 120Z" fill="#6097b0" stroke="#6097b0"></path><path d="M772.4 469L780.4 368L643.9 349Z" fill="#6097b0" stroke="#6097b0"></path><path d="M653.9 227L773.4 127L650.9 116Z" fill="#669bb3" stroke="#669bb3"></path><path d="M780.4 368L771.4 234L643.9 349Z" fill="#88b4c7" stroke="#88b4c7"></path><path d="M499.3 120L397.7 135L517.3 247Z" fill="#82afc3" stroke="#82afc3"></path><path d="M247.1 477L377.7 485L386.7 368Z" fill="#82afc3" stroke="#82afc3"></path><path d="M386.7 368L377.7 485L504.3 374Z" fill="#8db8ca" stroke="#8db8ca"></path><path d="M648.9 600L772.4 469L643.9 481Z" fill="#88b4c7" stroke="#88b4c7"></path><path d="M643.9 481L772.4 469L643.9 349Z" fill="#71a3ba" stroke="#71a3ba"></path><path d="M900 255L773.4 127L771.4 234Z" fill="#669bb3" stroke="#669bb3"></path><path d="M771.4 234L773.4 127L653.9 227Z" fill="#7dabc0" stroke="#7dabc0"></path><path d="M377.7 485L500.3 600L517.3 493Z" fill="#5a93ad" stroke="#5a93ad"></path><path d="M517.3 493L648.9 600L643.9 481Z" fill="#88b4c7" stroke="#88b4c7"></path><path d="M500.3 600L648.9 600L517.3 493Z" fill="#5a93ad" stroke="#5a93ad"></path><path d="M372.7 223L267.1 344L386.7 368Z" fill="#71a3ba" stroke="#71a3ba"></path><path d="M244.1 250L267.1 344L372.7 223Z" fill="#6097b0" stroke="#6097b0"></path><path d="M650.9 116L530.3 0L499.3 120Z" fill="#669bb3" stroke="#669bb3"></path><path d="M499.3 120L379.7 0L397.7 135Z" fill="#669bb3" stroke="#669bb3"></path><path d="M626.9 0L530.3 0L650.9 116Z" fill="#669bb3" stroke="#669bb3"></path><path d="M755.4 0L626.9 0L650.9 116Z" fill="#5a93ad" stroke="#5a93ad"></path><path d="M262.1 113L372.7 223L397.7 135Z" fill="#82afc3" stroke="#82afc3"></path><path d="M262.1 113L244.1 250L372.7 223Z" fill="#6c9fb7" stroke="#6c9fb7"></path><path d="M900 474L900 351L780.4 368Z" fill="#8db8ca" stroke="#8db8ca"></path><path d="M780.4 368L900 255L771.4 234Z" fill="#7dabc0" stroke="#7dabc0"></path><path d="M900 474L780.4 368L772.4 469Z" fill="#7dabc0" stroke="#7dabc0"></path><path d="M900 351L900 255L780.4 368Z" fill="#93bccd" stroke="#93bccd"></path><path d="M377.7 485L369.7 600L500.3 600Z" fill="#77a7bd" stroke="#77a7bd"></path><path d="M258.1 600L369.7 600L377.7 485Z" fill="#93bccd" stroke="#93bccd"></path><path d="M136.6 375L247.1 477L267.1 344Z" fill="#5a93ad" stroke="#5a93ad"></path><path d="M267.1 344L247.1 477L386.7 368Z" fill="#669bb3" stroke="#669bb3"></path><path d="M648.9 600L786.4 600L772.4 469Z" fill="#93bccd" stroke="#93bccd"></path><path d="M379.7 0L262.1 113L397.7 135Z" fill="#6c9fb7" stroke="#6c9fb7"></path><path d="M530.3 0L379.7 0L499.3 120Z" fill="#5a93ad" stroke="#5a93ad"></path><path d="M900 106L755.4 0L773.4 127Z" fill="#77a7bd" stroke="#77a7bd"></path><path d="M773.4 127L755.4 0L650.9 116Z" fill="#93bccd" stroke="#93bccd"></path><path d="M786.4 600L900 474L772.4 469Z" fill="#8db8ca" stroke="#8db8ca"></path><path d="M900 255L900 106L773.4 127Z" fill="#82afc3" stroke="#82afc3"></path><path d="M247.1 477L258.1 600L377.7 485Z" fill="#8db8ca" stroke="#8db8ca"></path><path d="M244.1 250L136.6 375L267.1 344Z" fill="#77a7bd" stroke="#77a7bd"></path><path d="M247.1 477L111.6 600L258.1 600Z" fill="#7dabc0" stroke="#7dabc0"></path><path d="M127.6 236L136.6 375L244.1 250Z" fill="#82afc3" stroke="#82afc3"></path><path d="M379.7 0L263.1 0L262.1 113Z" fill="#6097b0" stroke="#6097b0"></path><path d="M122.6 135L127.6 236L244.1 250Z" fill="#82afc3" stroke="#82afc3"></path><path d="M786.4 600L900 600L900 474Z" fill="#669bb3" stroke="#669bb3"></path><path d="M122.6 135L244.1 250L262.1 113Z" fill="#88b4c7" stroke="#88b4c7"></path><path d="M900 106L900 0L755.4 0Z" fill="#6097b0" stroke="#6097b0"></path><path d="M119.6 0L122.6 135L262.1 113Z" fill="#77a7bd" stroke="#77a7bd"></path><path d="M0 363L111.6 470L136.6 375Z" fill="#669bb3" stroke="#669bb3"></path><path d="M136.6 375L111.6 470L247.1 477Z" fill="#5a93ad" stroke="#5a93ad"></path><path d="M0 363L136.6 375L127.6 236Z" fill="#669bb3" stroke="#669bb3"></path><path d="M111.6 470L111.6 600L247.1 477Z" fill="#5a93ad" stroke="#5a93ad"></path><path d="M263.1 0L119.6 0L262.1 113Z" fill="#669bb3" stroke="#669bb3"></path><path d="M0 254L0 363L127.6 236Z" fill="#6c9fb7" stroke="#6c9fb7"></path><path d="M0 254L127.6 236L122.6 135Z" fill="#93bccd" stroke="#93bccd"></path><path d="M111.6 470L0 490L111.6 600Z" fill="#82afc3" stroke="#82afc3"></path><path d="M0 114L0 254L122.6 135Z" fill="#82afc3" stroke="#82afc3"></path><path d="M0 363L0 490L111.6 470Z" fill="#6097b0" stroke="#6097b0"></path><path d="M119.6 0L0 114L122.6 135Z" fill="#6c9fb7" stroke="#6c9fb7"></path><path d="M0 490L0 600L111.6 600Z" fill="#71a3ba" stroke="#71a3ba"></path><path d="M119.6 0L0 0L0 114Z" fill="#5a93ad" stroke="#5a93ad"></path></g></svg>