<svg id="visual" viewBox="0 0 900 600" width="900" height="600" xmlns="http://www.w3.org/2000/svg" xmlns:xlink="http://www.w3.org/1999/xlink" version="1.1"><g stroke-width="1" stroke-linejoin="bevel"><path d="M460 313L456 446L607 434Z" fill="#bbd9e6" stroke="#bbd9e6"></path><path d="M607 434L604 299L460 313Z" fill="#bad2de" stroke="#bad2de"></path><path d="M460 313L307 439L456 446Z" fill="#b4bbc0" stroke="#b4bbc0"></path><path d="M440 600L591 600L456 446Z" fill="#b9cbd6" stroke="#b9cbd6"></path><path d="M456 446L591 600L607 434Z" fill="#b3b8bc" stroke="#b3b8bc"></path><path d="M604 299L595 162L460 313Z" fill="#b4bbc0" stroke="#b4bbc0"></path><path d="M460 313L292 299L307 439Z" fill="#b9cfda" stroke="#b9cfda"></path><path d="M607 434L746 306L604 299Z" fill="#b4bbc0" stroke="#b4bbc0"></path><path d="M604 299L744 145L595 162Z" fill="#b9cfda" stroke="#b9cfda"></path><path d="M754 463L746 306L607 434Z" fill="#bbd6e2" stroke="#bbd6e2"></path><path d="M307 439L440 600L456 446Z" fill="#b8c8d2" stroke="#b8c8d2"></path><path d="M591 600L754 463L607 434Z" fill="#b7c5ce" stroke="#b7c5ce"></path><path d="M595 162L448 150L460 313Z" fill="#bad2de" stroke="#bad2de"></path><path d="M309 159L292 299L460 313Z" fill="#b3b8bc" stroke="#b3b8bc"></path><path d="M448 150L309 159L460 313Z" fill="#b3b8bc" stroke="#b3b8bc"></path><path d="M591 600L754 600L754 463Z" fill="#bad2de" stroke="#bad2de"></path><path d="M162 443L292 600L307 439Z" fill="#b6c2c9" stroke="#b6c2c9"></path><path d="M307 439L292 600L440 600Z" fill="#bbd6e2" stroke="#bbd6e2"></path><path d="M900 160L744 145L746 306Z" fill="#b5bec5" stroke="#b5bec5"></path><path d="M746 306L744 145L604 299Z" fill="#b7c5ce" stroke="#b7c5ce"></path><path d="M595 162L454 0L448 150Z" fill="#bad2de" stroke="#bad2de"></path><path d="M292 299L162 443L307 439Z" fill="#b9cfda" stroke="#b9cfda"></path><path d="M155 289L162 443L292 299Z" fill="#b4bbc0" stroke="#b4bbc0"></path><path d="M754 463L900 311L746 306Z" fill="#bbd6e2" stroke="#bbd6e2"></path><path d="M900 464L900 311L754 463Z" fill="#bbd9e6" stroke="#bbd9e6"></path><path d="M754 600L900 464L754 463Z" fill="#b6c2c9" stroke="#b6c2c9"></path><path d="M160 154L155 289L292 299Z" fill="#bad2de" stroke="#bad2de"></path><path d="M606 0L454 0L595 162Z" fill="#b7c5ce" stroke="#b7c5ce"></path><path d="M448 150L454 0L309 159Z" fill="#b7c5ce" stroke="#b7c5ce"></path><path d="M309 159L160 154L292 299Z" fill="#b9cbd6" stroke="#b9cbd6"></path><path d="M744 145L606 0L595 162Z" fill="#b7c5ce" stroke="#b7c5ce"></path><path d="M291 0L160 154L309 159Z" fill="#bad2de" stroke="#bad2de"></path><path d="M754 600L900 600L900 464Z" fill="#bad2de" stroke="#bad2de"></path><path d="M900 311L900 160L746 306Z" fill="#b3b8bc" stroke="#b3b8bc"></path><path d="M744 145L735 0L606 0Z" fill="#b4bbc0" stroke="#b4bbc0"></path><path d="M900 0L735 0L744 145Z" fill="#bad2de" stroke="#bad2de"></path><path d="M0 462L143 600L162 443Z" fill="#b4bbc0" stroke="#b4bbc0"></path><path d="M162 443L143 600L292 600Z" fill="#bad2de" stroke="#bad2de"></path><path d="M0 462L162 443L0 288Z" fill="#b6c2c9" stroke="#b6c2c9"></path><path d="M454 0L291 0L309 159Z" fill="#bbd9e6" stroke="#bbd9e6"></path><path d="M0 288L162 443L155 289Z" fill="#bbd9e6" stroke="#bbd9e6"></path><path d="M900 160L900 0L744 145Z" fill="#b9cfda" stroke="#b9cfda"></path><path d="M0 141L0 288L160 154Z" fill="#b9cbd6" stroke="#b9cbd6"></path><path d="M160 154L0 288L155 289Z" fill="#b9cfda" stroke="#b9cfda"></path><path d="M291 0L134 0L160 154Z" fill="#b7c5ce" stroke="#b7c5ce"></path><path d="M0 462L0 600L143 600Z" fill="#bbd6e2" stroke="#bbd6e2"></path><path d="M134 0L0 141L160 154Z" fill="#b4bbc0" stroke="#b4bbc0"></path><path d="M134 0L0 0L0 141Z" fill="#b4bbc0" stroke="#b4bbc0"></path></g></svg>