<svg xmlns="http://www.w3.org/2000/svg" width="48" height="48" id="office"><g transform="translate(0 -1004.362)"><circle cx="24" cy="1028.362" r="24" fill="#239fdb" fill-rule="evenodd"></circle><g transform="rotate(90 105.82 959.302)"><path fill="#fcd062" d="M172.442 1025.38c-.83 0-1.5.67-1.5 1.5v11.486l-3.375-3.375a1.501 1.501 0 0 0-2.125 0 1.501 1.501 0 0 0 0 2.125c3 2.281 3.153 6.807 7.438 9.281v3.437h9v-2.045c0-1.897.96-3.622 1-5.187v-7.236c0-.831-.67-1.5-1.5-1.5-.831 0-1.5.669-1.5 1.5v-.969c0-.83-.67-1.5-1.5-1.5-.727 0-1.33.534-1.469 1.219v-.656c0-.831-.669-1.5-1.5-1.5-.727 0-1.33.502-1.469 1.187v-6.267c0-.83-.669-1.5-1.5-1.5z"></path><rect width="10.938" height="5" x="171.942" y="1049.121" fill="#5a6174" rx=".259" ry=".259"></rect><path fill="#f8fafa" fill-opacity=".984" d="M172.44 1025.893c-.605 0-1.093.489-1.093 1.094v1.375h2.187v-1.375c0-.605-.488-1.094-1.093-1.094zm-7.057 10.089c-.312.312-.19.864.237 1.292.26.26.654.643.984.977l1.088-1.087-.973-.972c-.428-.428-1.025-.522-1.336-.21z"></path><path fill="#f8b84e" d="M175.406 1031.924c-.727 0-1.33.503-1.469 1.188v3.437c.14-.684.674-1.36 1.469-1.187.795.174.723 1.374 1.527 1.5.805.126.574-.563 1.528-.563.955 0 .772 1.295 1.528 1.5.756.206.736-.53 1.528-.53.79 0 1.358.668 1.358 1.5v-3.438c0-.831-.67-1.5-1.5-1.5-.831 0-1.5.669-1.5 1.5v-.97c0-.83-.67-1.5-1.5-1.5-.728 0-1.33.535-1.47 1.22v-.657c0-.83-.668-1.5-1.5-1.5z"></path></g></g></svg>