<svg xmlns="http://www.w3.org/2000/svg" viewBox="0 0 500 500" id="man"><switch><g><linearGradient id="a" x1="251.198" x2="251.198" y1="256.229" y2="386.005" gradientUnits="userSpaceOnUse"><stop offset=".299" stop-color="#D17746"></stop><stop offset=".859" stop-color="#D96D3C"></stop></linearGradient><path fill="url(#a)" d="m46.7 509.2 5-112.5c4.8-28.3 24.5-50.6 49.6-56.1l90.6-16c8-1.5 14.2-11.2 14.3-21.4l2-47h87l2 48.9c.4 9.6 6.5 17.5 14.4 19l89.4 16.4c25.1 5.5 44.8 27.8 49.6 56.1l5 112.5c-51 .1-357.6.1-408.9.1z"></path><linearGradient id="b" x1="250" x2="250" y1="512.773" y2="374.958" gradientUnits="userSpaceOnUse"><stop offset=".117" stop-color="#FD6529"></stop><stop offset=".995" stop-color="#FF1F35"></stop></linearGradient><path fill="url(#b)" d="M41.4 406.4c0-39.2 19-59.8 50.5-67.6l78.2-10.4s21.8 54.3 79.9 54.3c57.5 0 78.4-55.4 78.4-55.4l79.2 11.5c31.5 7.8 50.5 28.4 50.5 67.6l2.8 102.7h-422l2.5-102.7z"></path><linearGradient id="c" x1="350.5" x2="324.249" y1="166.529" y2="166.529" gradientUnits="userSpaceOnUse"><stop offset=".224" stop-color="#D17746"></stop><stop offset=".738" stop-color="#D96D3C"></stop></linearGradient><path fill="url(#c)" d="m332.8 130.6 6.2.4c9.2 2.6 19.2 11.3 16.9 25.4-2.1 12.8-3.1 13.9-5.8 29.8-3.7 22.5-22 15.1-22 15.1l4.7-70.7z"></path><linearGradient id="d" x1="157" x2="181.716" y1="166.529" y2="166.529" gradientUnits="userSpaceOnUse"><stop offset=".222" stop-color="#D17746"></stop><stop offset=".877" stop-color="#D96D3C"></stop></linearGradient><path fill="url(#d)" d="m171.1 130.6-6.1.4c-9.2 2.6-19.2 11.3-16.9 25.4 2.1 12.8 3.1 13.9 5.7 29.8 3.7 22.5 22 15.1 22 15.1l-4.7-70.7z"></path><linearGradient id="e" x1="251.961" x2="251.961" y1="264.333" y2="66.909" gradientUnits="userSpaceOnUse"><stop offset=".31" stop-color="#D96D3C"></stop><stop offset="1" stop-color="#D17746"></stop></linearGradient><path fill="url(#e)" d="m251.6 54.7-83.7.4v159.3c0 10.8 4.2 21.2 11.6 28.9l25.7 26.8c7.4 7.7 17.8 12.1 28.5 12.1H270c10.7 0 21-4.4 28.5-12.1l25.7-26.8c7.5-7.8 11.7-18.2 11.7-28.9L336 55l-84.4-.3z"></path><linearGradient id="f" x1="150" x2="352.76" y1="99.001" y2="99.001" gradientUnits="userSpaceOnUse"><stop offset="0"></stop><stop offset="1" stop-color="#111"></stop></linearGradient><path fill="url(#f)" d="M170.7 201c-5.4 0-13.4-32.6-13.9-37 0 0-5.8-34.2-6.4-45.8C148.1 75.6 154.6-3 250-3h8.6c52.7 0 99.6 39.6 93.6 105.1l-5.7 60.8c-2.4 21.6-7.8 33.5-11.9 32.9-1.2-.2-1.7-3.5-1.7-8.4v-60.1c.8-43.1-17.5-46.1-44.7-38.9l-19.5 4.5c-13.8 4.2-24.4 3.9-37.5 0l-20.6-5c-25.6-4.9-37.3 5.4-38.4 39.2v64.5c0 4.2.1 9.4-1.5 9.4z"></path><linearGradient id="g" x1="239.57" x2="261.097" y1="259.667" y2="259.667" gradientUnits="userSpaceOnUse"><stop offset="0"></stop><stop offset="1" stop-color="#111"></stop></linearGradient><path fill="url(#g)" d="M256 269h-11.3c-3.5 0-5.9-3.4-4.9-6.7l2.7-8.4c.7-2.1 2.7-3.6 4.9-3.6h5.9c2.2 0 4.2 1.4 4.9 3.6l2.7 8.4c1 3.3-1.5 6.7-4.9 6.7z"></path></g></switch></svg>